<svg xmlns="http://www.w3.org/2000/svg" viewBox="0 0 762 762" fill="none" shape-rendering="auto"><metadata xmlns:rdf="http://www.w3.org/1999/02/22-rdf-syntax-ns#" xmlns:xsi="http://www.w3.org/2001/XMLSchema-instance" xmlns:dc="http://purl.org/dc/elements/1.1/" xmlns:dcterms="http://purl.org/dc/terms/"><rdf:RDF><rdf:Description><dc:title>Adventurer</dc:title><dc:creator>Lisa Wischofsky</dc:creator><dc:source xsi:type="dcterms:URI">https://www.figma.com/community/file/1184595184137881796</dc:source><dcterms:license xsi:type="dcterms:URI">https://creativecommons.org/licenses/by/4.0/</dcterms:license><dc:rights>Remix of „Adventurer” (https://www.figma.com/community/file/1184595184137881796) by „Lisa Wischofsky”, licensed under „CC BY 4.0” (https://creativecommons.org/licenses/by/4.0/)</dc:rights></rdf:Description></rdf:RDF></metadata><mask id="viewboxMask"><rect width="762" height="762" rx="0" ry="0" x="0" y="0" fill="#fff" /></mask><g mask="url(#viewboxMask)"><rect fill="#c0aede" width="762" height="762" x="0" y="0" /><path d="M396 164.8a224.8 224.8 0 0 1 104.8 42.4c6.2 4.9 12.5 9.4 18 15a225.4 225.4 0 0 1 71.8 149 58.5 58.5 0 0 1 50.9 42.2 71 71 0 0 1-27.6 76.5c-11 7.7-24.5 12-38 11.7-5 0-10-1.6-15-1.8-1.9 2.2-3.3 4.9-4.8 7.3A223.3 223.3 0 0 1 389 609.8c-11 .7-21.9 2-33 .7a223.7 223.7 0 0 1-178.8-342.3A223.4 223.4 0 0 1 352 163.5c14.6-1.4 29.4-.3 44 1.3Z" fill="#000"/><path fill-rule="evenodd" clip-rule="evenodd" d="M498.8 213.2A216 216 0 0 0 363 169c-13-.2-26.2 1.6-39 4a218 218 0 0 0-113.6 365.5 218.5 218.5 0 0 0 260.4 40.2c35-18.8 64.2-47.3 84.4-81.5l-3-1.6c-2.8-1.4-5.7-3-8-5-2.2-2-.3-5.8 2.7-4.7 1.5.7 3 1.6 4.4 2.4a55 55 0 0 0 59.6-3.6 64.5 64.5 0 0 0 25-69.8 53.1 53.1 0 0 0-24-31 52.6 52.6 0 0 0-47-2.8c-1.6.8-3.4 1.5-5 1.3-2.5-.2-2.8-4.2-.6-5.2 8-4 16.5-5.6 25.4-6.4a217 217 0 0 0-72-146.4c-4.4-4-8.7-8.1-13.9-11.3Zm107.6 196.2c2-1.2 1.3-5.1-1.4-5-2 0-4.2.8-6.2 1.6l-1.4.4a95.1 95.1 0 0 0-25.5 12.4c-2.2 2-2.2 4.4.1 6.2a92 92 0 0 0 5.2 2.8 36 36 0 0 1 13 9.2c-.2 1.9-2 3.4-3.4 4.5l-.2.2c-3.9 3-8.8 5-13.6 7-2.5 1-4.9 2-7.1 3.1-1.7.8-2.6 2.2-1.6 3.9 1 2 3.2 1.1 5 .5l.6-.2 5.4-2.3c5.4-2.3 11-4.5 15.4-8 2.7-2.1 5.1-5.1 5.4-8.7-.5-3.4-2.7-5.7-5.3-7.8a83 83 0 0 0-11.6-7.2l-1.1-.6c5.4-3 10.8-5.6 16.6-7.7l5-1.7a52 52 0 0 0 6.7-2.6Z" fill="#763900"/><g transform="translate(-161 -83)"><path d="M547.5 424.8a65.2 65.2 0 1 1 18.8 129 65.2 65.2 0 0 1-18.8-129Z" fill="#000"/><path d="M549.2 430.3a59.6 59.6 0 1 1 15.3 118.3 59.6 59.6 0 0 1-15.3-118.3Z" fill="#fff"/><path d="M381.2 447.1a55.3 55.3 0 0 1 60 45.4 54.9 54.9 0 0 1-103.8 33.1 54.2 54.2 0 0 1-4.7-32.6 54.5 54.5 0 0 1 48.5-45.9Z" fill="#000"/><path d="M378.2 453.3a49.4 49.4 0 1 1-6 95.5A49.5 49.5 0 0 1 352 467c7.1-7.1 16.3-11.9 26.2-13.7Z" fill="#fff"/><path d="M558.8 456.7c-3.9 4-6.7 8.6-6.7 14.3a20.7 20.7 0 0 0 12.5 20.4c6 2.5 12.3 1.4 17.7-2a36.3 36.3 0 1 1-52.8-31 38.5 38.5 0 0 1 29.3-1.7ZM392 467.9a35 35 0 0 1 22.7 4.3c-3 3-5.4 6.3-5.5 10.8a14.6 14.6 0 0 0 11.8 15.5c3.4.6 6.2-.5 9.4-1.4a34.4 34.4 0 0 1-14.8 31.5 33.3 33.3 0 1 1-23.6-60.7Z" fill="#000"/><path d="M527.4 489.5c2.3-1 4.8-1.3 7 .2 3.5 2.3 3.5 7.5.8 10.5s-7.8 3.2-10.4-.1c-2.8-3.4-1.3-8.7 2.6-10.6ZM379.4 495.6c4.8-1.7 9.4 3.5 7.1 8-1.6 3.6-7 4.3-9.4 1.3-2.6-3-1.5-8 2.3-9.3ZM536.5 504.7c2.5-.8 5.3-.6 7.8.1 6.1 2.4 8 11.2 3.6 16-4 4.8-11.8 5-15.8 0-4.4-5.3-2.4-13.9 4.4-16.1ZM386.5 512.7c3.4-1 7.1-.6 9.6 2.2 3.5 3.4 3.4 9.6-.6 12.6-4 3.5-10.7 1.8-13.2-2.8-2.6-4.3-.6-10.3 4.2-12Z" fill="#fff"/></g><g transform="translate(-161 -83)"><path d="M568.4 406c-.6-3-2.4-5-4.6-6.9a50 50 0 0 0-45.6-11.5 37.8 37.8 0 0 0-23.6 17c-2.9 5-4.8 10.6-4 16.4l.2 1.2c.2 1.7.3 3 2.4 3.6 2.2.1 4.4-.3 6.6-.7h.3l6.2-1.3 15.7-3.1c15-3.2 30-6.9 44.8-11.1 1.8-.3 1.7-1.6 1.7-3v-.6ZM430.1 431c-.8-9.8-8.9-17.4-17.9-20.3-13.2-4-28.3-.4-38.3 9.2a28 28 0 0 0-9.1 16.1c-.1 2.7 2.3 2.8 4.4 2.8h.8l9-.1c9.4-.2 18.7-.4 28-1.3 2.4-.3 4.8-.4 7.3-.6 4.2-.3 8.5-.6 12.7-1.1 2.4 0 3.3-2.6 3.1-4.6Z" fill="#000"/></g><g transform="translate(-161 -83)"><path d="M517.9 557.3c2.3.2 3.1 2.7 2.3 4.7-1.4 3.5-3.2 7-4.7 10.5-8.4 19.3-19.5 37-31.8 54.2-1.4 1.8-2.9 4-4.8 5.2-3 .8-6.1.8-8.6-1.1a129.4 129.4 0 0 1-24.4-22.8c-7-7.8-13.4-16-18.8-25.1-1-2.2-2.6-4.5-1.2-6.9 1-1.5 3.2-2 4.9-2.5 11-3.1 22.1-6.5 33.3-9.3a235 235 0 0 1 36-5.7c5.8-.5 11.8-1.4 17.8-1.2Z" fill="#000"/><path d="M513.8 563c-9 21.2-21 40.8-34.3 59.5-1 1.1-2.2 2.8-3.7 3-2.2.6-3.7-.8-5.4-1.9a155 155 0 0 1-22.7-22.3A137.4 137.4 0 0 1 431 579c15-4 29.9-8.6 45.1-11.4 12.5-2.5 25-3.3 37.6-4.6Z" fill="#8F2E45"/></g><g transform="translate(-161 -83)"><path d="M489.1 525.9c6.3 4.7 7.6 15 14 20s14.5 7.3 22.2 3.6c1 1.3 2.3 2.3 1.3 4.1-4 7-11.2 10.4-18.7 12.5a40.6 40.6 0 0 1-29.4-2.6c-6.3-3.5-9.9-9.1-14.4-14.5a59.5 59.5 0 0 1-20.4 18.8c-5.8 3-13.3 5-19.8 3.3-6.3-1.8-12-6.1-12.2-13.1-.2-2.4 1.2-2.7 3.1-3.1 1.3 1.3 2.3 2.7 4.2 3 3.5.7 7-1.2 9.1-3.8 5.4-6.4 4.5-17 10.4-22.6 6.2-5.9 16.9-8.1 24.5-4 7.7-5.2 18-6.9 26.1-1.6Z" fill="#000"/></g><g transform="translate(-161 -83)"></g><g transform="translate(-161 -83)"><path d="M533 175.3a225 225 0 0 1 71 11.6 102.8 102.8 0 0 1 44 28c6.1 7.1 10.3 15.5 12.8 24.5 26 6.7 50.3 18.8 71.8 35A226.3 226.3 0 0 1 822.4 433c2.6 31-2.2 62.2-16.5 90-1.8 3.3-2.4 6.9-3.4 10.5a71.8 71.8 0 0 1-26.9 39A61.6 61.6 0 0 0 778 607a37.5 37.5 0 0 0 13.8 18.1c2 1.6 4.9 2.6 3.6 5.9-1.6 1.8-4.2 2.9-6.3 4a74.1 74.1 0 0 1-48.2 3 63.8 63.8 0 0 1-36.6-24.4c-1.7-2.6-3.8-5.6-4.4-8.7.7-1.7 1.8-3 2.9-4.3 5.1-6.3 9.6-13.3 13.3-20.5-3.7-2.1-8.3-4-11.3-7-1.3-2.1.6-5.2 3.1-4.2 4.8 2.3 9 5.6 14.1 7.2a55.1 55.1 0 0 0 23.1 2.2 59.7 59.7 0 0 0 34-16.4 66.3 66.3 0 0 0 19.5-37c1.5-11 .8-21.9-3.4-32.1a52 52 0 0 0-62.8-31c5 18.1.5 38.4-7.4 55a81.2 81.2 0 0 1-24.3 30.7A31.2 31.2 0 0 1 680 554c-2.4-.5-5.4-.9-4.9-4 1.8-2.3 4.7-3.2 6.5-5.4 2.7-3.3 4.2-7.8 5.2-11.8a106 106 0 0 0 2-26.8c-1-14.5-2.9-28.7-6.4-42.8-.2-1.7-1.7-1.8-3-2.6a86.8 86.8 0 0 1-31.2-24.7 192.7 192.7 0 0 1-27-45 427.7 427.7 0 0 1-27.5-94.9c-13.5-6.2-28-10.3-42.7-12.8a92.3 92.3 0 0 0-22.8-1c-2.7.2-5 1.3-7.3 2.6 1.4 2 2.6 4 4.6 5.6 2.2 1.8 5 3 7 5 1.8 1.8 0 5-2.5 4.5-3.4-.6-6.6-2-10-2.8-15.2-4-30.8-6.5-46.5-7.2-11.6-1.3-23-.2-34.5.7a185 185 0 0 0-47.2 11c-2.9 1.1-5.4 2.5-7.7 4.5A214.4 214.4 0 0 0 310 466a217.4 217.4 0 0 0 107.1 191.8c2.7 1.6 6 2.9 8.2 5.1a32.8 32.8 0 0 1-15 30.4 47.7 47.7 0 0 1-50 .7 66 66 0 0 1-14.3 37 59.3 59.3 0 0 1-30 21.2c-2 .4-4 1.3-5.8-.4-2.2-1.7-.9-5.4-1-7.8.7-9.3-3.9-17.4-10.4-23.6a49.7 49.7 0 0 1-24.2 19.3A71.7 71.7 0 0 1 208 731a47.2 47.2 0 0 1-19-28.1c-.6-2.5.3-5 1.8-7 4.3-.6 8.4.2 12.8-1.1a39 39 0 0 0 22.1-19.9 68.2 68.2 0 0 0 6.2-44.3c-21-4.5-41-14-57-28.5A109.5 109.5 0 0 1 143 487.1a128.6 128.6 0 0 1 45.5-64.4c-6.2-15.6-2.3-32.3 5.6-46.5a94.6 94.6 0 0 1 45.5-40.5c10.5-4.4 22-6.1 33.3-4.4a63.7 63.7 0 0 1 .3-26 93.7 93.7 0 0 1 19.4-37.6c12-14.8 27.4-27.2 43.3-37.7 25-16.4 53-28.7 81.4-37.6A366.8 366.8 0 0 1 533 175.3Z" fill="#000"/><path d="M557 182.5a171 171 0 0 1 66 19.5 67.5 67.5 0 0 1 29.6 31.5c1.5 3.4 2 7 3.3 10.5 3.3 1.3 7 1.8 10.3 3a210 210 0 0 1 96.1 62.7 220.8 220.8 0 0 1 52 105.6C820 447 817.8 481 805 511c-.8-6-1.5-11.9-3.6-17.6a58.3 58.3 0 0 0-29.4-33.5 59.4 59.4 0 0 0-44-2.9c-1.4.4-2.5 1.2-2 2.9 1.4 6.6 3 13.1 2.6 20a93.9 93.9 0 0 1-17.3 48.4 49.6 49.6 0 0 1-24.8 19.7c5.3-8.2 7-17.5 7.7-27a196.9 196.9 0 0 0-7-61.6c-.6-2.7-2.9-2.9-5-4A78.9 78.9 0 0 1 654 434a184 184 0 0 1-27.9-46.2 404 404 0 0 1-25.4-85.6c-.6-3.2-.8-6.8-2.2-9.8-1.5-1.8-3.6-3.1-5.5-4.6a305 305 0 0 0-101.3-54.4c-23-6.5-47-9.6-70.8-7-23 2.5-44.8 10.7-63.6 24a109.6 109.6 0 0 0-35.4 45.8c-.6 1.6-1 4.2 1.1 4.9 2 1.1 4-2 4.6-3.5 4.2-9.9 9.7-19 16.7-27.2a106.2 106.2 0 0 1 36.2-26.8c16.7-7.9 35-11.8 53.4-12.3 28.6-.8 56.3 6.1 82.5 17.1a304.4 304.4 0 0 1 61.5 35.2c-12.4-3.8-25-6.6-38-7.5-5.9-.3-12.5-.4-18 1.5-2.7 1-5 2.6-6.1 5.3-.8 2.8.3 5 1.2 7.6a221.8 221.8 0 0 0-119.6 2.9c-5.2 1.5-10 2.1-14.3 5.8a214.7 214.7 0 0 0-51 62c-8.4 14-14.5 29.5-18.8 45.3a224.8 224.8 0 0 0 23 179.1A224.1 224.1 0 0 0 420 666c-.5 8.3-4 15.4-10.4 20.6a41 41 0 0 1-47 1.8c-2-1-3.6-2.8-6.1-1.9-2.2.6-2 3.8-2 5.5 0 11.8-4.3 23-11 32.6-7 10-16.5 18.2-28.3 21.8a35 35 0 0 0-5-21.4c-2.8-4.3-6.4-9.1-11.1-11.3-4-.2-5.1 3.8-7.2 6.3a51 51 0 0 1-37.9 18.4 64.7 64.7 0 0 1-47.2-16.2 40 40 0 0 1-12.1-20.8c4.9 0 9.7-.4 14.2-2.5 12-5 20.4-16 25.1-28 4.8-12.2 6.5-26 4.1-39-.4-2-.5-4.5-1.7-6.2-2-1-4.4-1.2-6.6-1.8-20.5-4.8-39.8-15-54.9-29.8a103.6 103.6 0 0 1-25.2-108.3 122 122 0 0 1 39.3-55.9c1.8-1.6 4.4-3 5.7-5 .6-3.3-1.8-6.8-2.4-10a51 51 0 0 1 6.2-34.4 89 89 0 0 1 38.7-37.3 53.6 53.6 0 0 1 38.9-5c1.9.7 3.8-.1 4.2-2.2-.2-1.6-.7-3.3-1.1-4.9-2.3-8-2-17-.1-25 3-12.3 9.2-23.2 17-33 10.8-14 24.8-25.8 39.3-35.8 21.6-14.6 45.6-26 70.1-34.8a375.4 375.4 0 0 1 65.7-16.9c28.3-4.7 57.2-6.2 85.8-3.1ZM768.9 576.6c-.6 8.6-.9 17 1.4 25.4a49 49 0 0 0 17 27.5c-17.3 7.7-38 7-55.2-.6a51.6 51.6 0 0 1-26-23.3c5.8-7.3 11-15 15.2-23.3 4.6.7 9.1 2 13.7 2.4 11.8.4 23.5-2.5 33.9-8Z" fill="#592454"/></g><g transform="translate(-161 -83)"></g></g></svg>