<svg xmlns="http://www.w3.org/2000/svg" viewBox="0 0 762 762" fill="none" shape-rendering="auto"><metadata xmlns:rdf="http://www.w3.org/1999/02/22-rdf-syntax-ns#" xmlns:xsi="http://www.w3.org/2001/XMLSchema-instance" xmlns:dc="http://purl.org/dc/elements/1.1/" xmlns:dcterms="http://purl.org/dc/terms/"><rdf:RDF><rdf:Description><dc:title>Adventurer</dc:title><dc:creator>Lisa Wischofsky</dc:creator><dc:source xsi:type="dcterms:URI">https://www.figma.com/community/file/1184595184137881796</dc:source><dcterms:license xsi:type="dcterms:URI">https://creativecommons.org/licenses/by/4.0/</dcterms:license><dc:rights>Remix of „Adventurer” (https://www.figma.com/community/file/1184595184137881796) by „Lisa Wischofsky”, licensed under „CC BY 4.0” (https://creativecommons.org/licenses/by/4.0/)</dc:rights></rdf:Description></rdf:RDF></metadata><mask id="viewboxMask"><rect width="762" height="762" rx="0" ry="0" x="0" y="0" fill="#fff" /></mask><g mask="url(#viewboxMask)"><rect fill="#ffd5dc" width="762" height="762" x="0" y="0" /><path d="M396 164.8a224.8 224.8 0 0 1 104.8 42.4c6.2 4.9 12.5 9.4 18 15a225.4 225.4 0 0 1 71.8 149 58.5 58.5 0 0 1 50.9 42.2 71 71 0 0 1-27.6 76.5c-11 7.7-24.5 12-38 11.7-5 0-10-1.6-15-1.8-1.9 2.2-3.3 4.9-4.8 7.3A223.3 223.3 0 0 1 389 609.8c-11 .7-21.9 2-33 .7a223.7 223.7 0 0 1-178.8-342.3A223.4 223.4 0 0 1 352 163.5c14.6-1.4 29.4-.3 44 1.3Z" fill="#000"/><path fill-rule="evenodd" clip-rule="evenodd" d="M498.8 213.2A216 216 0 0 0 363 169c-13-.2-26.2 1.6-39 4a218 218 0 0 0-113.6 365.5 218.5 218.5 0 0 0 260.4 40.2c35-18.8 64.2-47.3 84.4-81.5l-3-1.6c-2.8-1.4-5.7-3-8-5-2.2-2-.3-5.8 2.7-4.7 1.5.7 3 1.6 4.4 2.4a55 55 0 0 0 59.6-3.6 64.5 64.5 0 0 0 25-69.8 53.1 53.1 0 0 0-24-31 52.6 52.6 0 0 0-47-2.8c-1.6.8-3.4 1.5-5 1.3-2.5-.2-2.8-4.2-.6-5.2 8-4 16.5-5.6 25.4-6.4a217 217 0 0 0-72-146.4c-4.4-4-8.7-8.1-13.9-11.3Zm107.6 196.2c2-1.2 1.3-5.1-1.4-5-2 0-4.2.8-6.2 1.6l-1.4.4a95.1 95.1 0 0 0-25.5 12.4c-2.2 2-2.2 4.4.1 6.2a92 92 0 0 0 5.2 2.8 36 36 0 0 1 13 9.2c-.2 1.9-2 3.4-3.4 4.5l-.2.2c-3.9 3-8.8 5-13.6 7-2.5 1-4.9 2-7.1 3.1-1.7.8-2.6 2.2-1.6 3.9 1 2 3.2 1.1 5 .5l.6-.2 5.4-2.3c5.4-2.3 11-4.5 15.4-8 2.7-2.1 5.1-5.1 5.4-8.7-.5-3.4-2.7-5.7-5.3-7.8a83 83 0 0 0-11.6-7.2l-1.1-.6c5.4-3 10.8-5.6 16.6-7.7l5-1.7a52 52 0 0 0 6.7-2.6Z" fill="#763900"/><g transform="translate(-161 -83)"><path d="M617.2 468.8c1.2 1.4 2.4 2.4 2.9 4.2a65.5 65.5 0 0 1-79 79.6 65.2 65.2 0 0 1-49-71.6c.6-3.4 1.8-7.2 5.7-8 8.6-1.6 17.5-1.4 26.2-2.4a999 999 0 0 1 73-2c6.8-.4 13.5.4 20.2.2Z" fill="#000"/><path d="m607 474.3 7.5.3a59 59 0 0 1-37.2 70.6 59.3 59.3 0 0 1-79-66c1.8-.7 3.7-1.3 5.7-1.4 16.9-1.4 33.8-2.4 50.8-3-.5 5.2-.2 10.4 2 15.4a26.7 26.7 0 0 0 18.7 15c4.9.9 9.9.6 14.6-1.1 8.2-2.8 14.3-10 16.4-18.3 1-3.9.7-7.6.6-11.5Z" fill="#fff"/><path d="M432 480.7c2-.3 3.8.3 5.8.7a55 55 0 1 1-106 18.6c6.5-3.3 13.1-3.8 20.4-5.5 20.5-4.2 41.1-8.1 61.8-11.3 6-1 12-2 18-2.5Z" fill="#000"/><path d="M433.7 486a54.7 54.7 0 0 1 2.6 16 49.6 49.6 0 0 1-54.3 48.9 49.7 49.7 0 0 1-44.4-47.3c14.4-3.6 29.1-6.2 43.7-9a24.7 24.7 0 0 0 10.1 16 24 24 0 0 0 30-2.3 25 25 0 0 0 7.2-21.7l5.1-.5Z" fill="#fff"/></g><g transform="translate(-161 -83)"><path d="M613.5 401.5c1.6 1 1.1 2.9 1.3 4.5l-.1 34c.3 2.8-2.5 4.2-4.7 5l-120 41.1c-2.5.2-2.9-1.7-3.5-3.6l-5-18c1 5.8 1 11.7 1.3 17.5 0 1.4.5 4-1 4.9-2 1.4-4 0-4.6-2l-10.6-38.4c-.4-1.8-.7-3.9 1.3-4.9 2.2-.5 3.5.5 4 2.5 1.3 4.5 2.6 9 3.7 13.7-.7-5.3-1-10.5-1.2-15.8 0-1.3-.1-3.7 1.7-3.8l4.4-.7 123.6-35.2c3.3-.9 6-2.1 9.4-.8ZM324 433.9c13.6 1.4 27.4 1.4 41 2.6 21 1 42.1 2.6 63.1 3.4 7.8.8 15.6 1 23.5 1.7 2.8 2.1 1 8 1.9 11.3.6-3 .2-7 2-9.5 2-1.8 5-.1 4.7 2.6-2.4 14-4.8 28.1-7 42.2-.8 2.9-4.5 2.5-5.3-.2-.3-5-.2-9.9-.3-14.8-1 4.3-1.5 8.7-2.5 13-.4 1.6-1.2 2.8-3 2.4l-119-21.3c-1.8-.2-2.8-1.5-3-3.3-1.5-8-2.6-16-4.2-24-.2-1.7-.7-3.1.6-4.6 2.1-2.2 4.7-1.6 7.5-1.5Z" fill="#000"/></g><g transform="translate(-161 -83)"><path d="M529.1 644.6c2.5.1 4.7 1.4 4 4.2-1.5 2-4.5 1.3-6.7 1.5a155 155 0 0 0-43.8 8.3 73.8 73.8 0 0 0-14 6.2c-2 1-3.3 2.6-5.6 1.5-2.2-1.6-1.2-3.5 0-5.2 8.6-5 17.7-8.4 27.1-11 12.7-3.4 26-5.7 39-5.5Z" fill="#000"/></g><g transform="translate(-161 -83)"></g><g transform="translate(-161 -83)"></g><g transform="translate(-161 -83)"><g fill="#000"><path d="M570.1 171.1c2.7-1 4.9.6 5.8 3 2.5 7.7 1 16.5-1.7 24a54 54 0 0 1 20.8-7c16.4-2 32.5 2.3 46.9 10a133.4 133.4 0 0 1 30.8 24.2 93.4 93.4 0 0 0 34.3 23.6 37.7 37.7 0 0 0 23.5.6c2-.4 5.2-1.7 6.9.1 1.7 1.5.7 4.3.4 6.2a52.7 52.7 0 0 1-18.7 29.3 61.2 61.2 0 0 1 30.7 28.1 89.6 89.6 0 0 1 9.9 43.8c.1 10.6-2 21-5.2 31a53 53 0 0 1 13.5 31 74 74 0 0 1-7.7 40.5c-.9 1.8-2.6 1.1-4.3 1.2a50.5 50.5 0 0 0-29.9 3.6c-2 .7-3.8 1.6-6.1 1.1-7.4-1.3-13.6-5.5-20.8-7.9a122 122 0 0 1 8.9 13.6c.7 1.4 1.7 3.2 1.7 4.9-.2 2.4-3.5 3.2-4.7 1-4-7.3-8.2-14.2-13.6-20.5-2.6-2.6.4-6.2 3.5-5.7 4.2.7 8.3 2.7 12.4 4-3.6-5-7.2-10.3-11.5-14.7-2-2.2-4.8-3.9-6.8-6.2-.2-1.4.2-2.8.6-4.1a81.3 81.3 0 0 0 .8-44.6c-3-12-8-23.4-16.2-32.9-5.2-2.2-10.3-4.5-15-7.5-11.4-6.8-20.8-16.1-31.9-23.1A51.7 51.7 0 0 0 578 319c-1.5.6-3.1.4-3.6-1.4-1.4-2.7.5-4.4 1.8-6.6 4.8-6.7 9.8-13.2 15-19.7-7.3 4-13.8 9.2-19.8 15a37.3 37.3 0 0 0-6.4 8.8l-5 .5c-2.4-2.8-3-6.1-6.4-8.2-6.3-4.1-15.4-3.7-22.5-2.4-18.9 3.8-37.4 10.1-57 10.7a53.4 53.4 0 0 1-31.7-8.7c-7.4 5-15.2 9-24.1 10.6a99.2 99.2 0 0 1-43.3-2.7c-7.6 6.1-12.8 13.6-18.9 21-6.1 8-12.2 16.3-16.8 25.1-1 1.6-1.8 3.7-3.3 4.8a30 30 0 0 1-13.9 4.3 37 37 0 0 1-24.5-5.7 28.3 28.3 0 0 1-11-18.5 56.8 56.8 0 0 1 3-29.5c.7-2.3 3.6-3.2 4.9-1 2.2 4.5 3.2 8.8 8.4 10.8 4.6 1.4 10.4-1.1 14.7-2.8a40.6 40.6 0 0 1-12.4-35 96 96 0 0 1 27.4-54 84.2 84.2 0 0 1 42-24.2c6.3-1.5 13-3.2 19.5-2.8 2.4 0 3.1 3.4 1.3 4.8a33.3 33.3 0 0 0-9 32.1c3.4-5.7 6.5-11.3 10.8-16.3a96.2 96.2 0 0 1 62.9-32.2c9.3-1.4 18.6-1.2 28-2 23.3-.5 46.7-3.6 67.9-14 5-2.4 9.2-6.4 14.2-8.8Z"/><path d="M699.8 472.2c2.2 3.5 3.8 7.5 5.6 11.3.9 2.2 2.3 4.4.8 6.8-1.2.4-2.2.6-3.4 0-1.9-2.6-2.8-6-4.3-8.9-1.4-3.5-3.7-6-3.2-10 1.5 0 3.5-.8 4.5.8Z"/></g><path d="M570.8 177.2c1.5 7-.1 14.8-3.2 21.3-.9 2.2-3.4 4.8-2.2 7.2.6 1 2.5 2.2 3.6 1.4 4-2 7.6-4.6 11.7-6.4a52.8 52.8 0 0 1 28.3-4.1 89 89 0 0 1 46.6 20.8c8.2 6.5 14.9 14.4 22.9 21.1 8.5 7 18 13.3 28.6 16.5a42.8 42.8 0 0 0 24.9.2 53.8 53.8 0 0 1-12.5 22.2c-2.7 2.6-6 4.1-9 6.2-1.6 1.3-1.9 2.7-.8 4.6 3.4 1 6.8 1.5 10 3 8.1 4 15.3 10 20.6 17.5a80.6 80.6 0 0 1 13.3 37.3c1 12.2.2 24.4-3.4 36.2-.6 2.2-1.8 4.4-2.2 6.7 2.4 3.3 5.8 5.8 7.7 9.5 9.7 16.7 8.5 36.3 1.6 53.8-.5.9-.8 3.2-2.3 2.7-9.5-1.4-18.9-.2-27.8 3.2-2 .7-4 1.9-6.2 2-1.5-.2-3-.7-4.5-1.2a107 107 0 0 0-21.4-26.7 91.4 91.4 0 0 0-12.4-77.9 53 53 0 0 0 31.9-5.7c3.2-1.6 6.9-3 9.8-5.2 2-2.2.1-4.9-2.5-5-10.4-.2-19.6-7.6-26.1-15.2-5-6.3-10.1-13.2-9.3-21.7l-2.5-.8-2.6 1c-1.6 5.4.4 10.1 2.9 14.9a58.4 58.4 0 0 0 28.7 26.3 51.3 51.3 0 0 1-25 6.2 54.5 54.5 0 0 1-23.4-7.8c-11.7-6.7-20.9-15.6-31.9-23a52.7 52.7 0 0 0-21.7-9c-9.2-1.2-18.9-1-27.8 2 5-7 10.2-13.8 15.8-20.3 1.4-1.6 2.8-3.3 4-5.1 1-1.4.4-3.7.4-5.3-2.1 0-4-.2-6 .9a96.3 96.3 0 0 0-35.1 27.5 22 22 0 0 0-10.9-8.5 53 53 0 0 0-28.4.5c-18.2 3.9-37.2 10.2-56 8.7-12-.7-23.8-7-31.1-16.6a44 44 0 0 1-3.4-44.6 57.7 57.7 0 0 1 26.3-26.1c-.6 4.8-.8 9.2 1 13.8a25.2 25.2 0 0 0 16.2 15c9.2 2.9 19.2 3.4 28.5 6.5 1.7.5 3.7 1.4 5.5 1.2 1.4-.1 2-2 2.7-3-1.6-1.4-3-2.7-5.2-3.4-8-2.8-17-3.8-25.5-5.6-3.4-.9-7-2-10-4-5.8-4-9.1-11.7-7.5-18.7 1.2-4.4 5.2-5.3 8-9l-1.2-3c-4.7-.5-9.3 2.6-13.6 4.4A62.4 62.4 0 0 0 425 252a48.6 48.6 0 0 0 13 51.8 75.3 75.3 0 0 1-11.4 5.8c-9.6 3.9-20.3 4-30.5 3.3a81 81 0 0 1-48.7-19.2c-2-1.9-3.2-4.4-5.2-6.4-2.1-.2-3.3.5-3.4 2.7 0 3.7 3.4 7 6 9.2a90 90 0 0 0 24 14c-3.4 3.4-6.8 6.8-9.9 10.6-8.5 10.4-17.5 21.3-23.9 33.1-1.6 3-3 5.6-6.4 6.7-7.2 2.1-16 1.8-23-1.1a21 21 0 0 1-11.6-11.6 45 45 0 0 1-1.3-25.2c2.9 2.6 5.4 5.6 9.4 6.3 6.6 1.2 12.6-1 18.5-3.6 2-1 3.8-2.2 4.3-4.5 0-2-2.1-3-3.4-4.3-5.7-4.7-9-11.4-10.3-18.6-1.4-9.4.3-18.6 3.4-27.5a99.8 99.8 0 0 1 27.6-40.3 82 82 0 0 1 43.7-19.3c-4.2 7.9-7 16-6 25.1.4 4 1 8.6 3.2 12 1.6 1.5 3.8 3.9 6.1 2.2 3-10 9-18.5 16.2-26a94.2 94.2 0 0 1 51.8-25c11.3-1.7 22.5-2.2 34-2.5 23.3-1 45.8-4.1 67-14.5 4.6-2.2 8.5-5.3 12.7-8Z" fill="#dba3be"/></g><g transform="translate(-161 -83)"></g></g></svg>